<svg xmlns="http://www.w3.org/2000/svg" width="63" height="42" viewBox="0 0 63 42">
    <g fill="none" fill-rule="evenodd" transform="translate(0 -1)">
        <g stroke="#0B1560">
            <path d="M18.845 11.774a4 4 0 0 1-4.634 3.244M20.814 12.121a6 6 0 0 1-6.95 4.867M22.784 12.468a8 8 0 0 1-9.268 6.49"/>
            <g>
                <path d="M10.155 9.226a4 4 0 0 1 4.634-3.244M8.186 8.879a6 6 0 0 1 6.95-4.867M6.216 8.532a8 8 0 0 1 9.268-6.49"/>
            </g>
        </g>
        <g fill="#0B1560">
            <path d="M19.03 35.226h34.037V24.078H19.03zM23.609 39.735H19c.574-1.239 1.086-2.4 1.66-3.527.09-.175.465-.275.708-.275 10.438-.01 20.877-.006 31.315 0 .097 0 .193.055.36.105v3.67h-7.546v-3.09h-8.526v3.076H31.02c-.97-2.46-2.09-3.438-3.857-3.361-1.738.076-2.884 1.163-3.553 3.402M61.65 34.635c0-2.25-.952-3.96-1.348-4.674-.396-.714-.592-.982-1.646-.982H55.99v3.637h1.912c.805 0 1.206.299 1.389.783.104.277.242.69.413 1.236h1.946zm-7.51-6.516c1.908 0 3.772-.026 5.633.027.3.009.704.306.867.59 1.941 3.369 2.502 6.404 2.013 10.673h-1.805c-.4-3.35-4.945-4.398-6.707-1.216V28.119z"/>
            <path d="M37.866 40.563H44.4v-3.232h-6.534zM57.41 41.395c.675-.104 1.163-.524 1.17-1.314.007-.808-.502-1.277-1.251-1.28-.761-.002-1.239.495-1.237 1.293.002.798.472 1.23 1.318 1.3m-.082-3.94c1.43-.01 2.533 1.146 2.531 2.657-.001 1.432-1.108 2.619-2.462 2.639-1.412.02-2.58-1.16-2.595-2.623-.016-1.493 1.09-2.663 2.526-2.673M27.347 41.393c.737-.11 1.209-.525 1.177-1.344-.031-.809-.525-1.278-1.277-1.253-.756.024-1.236.552-1.208 1.336.028.777.513 1.22 1.308 1.261m-.01-3.937c1.41.015 2.542 1.243 2.498 2.709-.042 1.432-1.175 2.58-2.537 2.571-1.428-.01-2.562-1.197-2.544-2.665.02-1.496 1.14-2.63 2.583-2.615"/>
        </g>
        <circle cx="14.5" cy="10.5" r="2.5" fill="#0B1560"/>
        <g stroke="#0B1560" stroke-linecap="round">
            <path stroke-dasharray="0,5" d="M.554 17.032C18.194 7.55 38.376 2.17 59.816 2.17"/>
            <path d="M45.486 39.749l.029-.498"/>
        </g>
    </g>
</svg>
