<svg xmlns="http://www.w3.org/2000/svg" xmlns:xlink="http://www.w3.org/1999/xlink" width="55" height="55" viewBox="0 0 55 55">
    <defs>
        <path id="a" d="M0 0h27v27H0z"/>
    </defs>
    <g fill="none" fill-rule="evenodd" transform="translate(1 1)">
        <circle cx="26.5" cy="26.5" r="26.5" stroke="#0B1560"/>
        <g transform="translate(13 13)">
            <mask id="b" fill="#fff">
                <use xlink:href="#a"/>
            </mask>
            <path fill="#0B1560" d="M26.448 3.226l-6.882 6.905 3.33 14.475L20.511 27 14.63 15.085l-4.661 4.677.008 3.626-1.85 1.855-2.097-4.2-4.144-2.055 1.956-1.938 3.353.04 4.73-4.717L0 6.53l2.459-2.432 14.487 3.29 6.84-6.833a1.878 1.878 0 0 1 2.662 0 1.894 1.894 0 0 1 0 2.672" mask="url(#b)"/>
        </g>
    </g>
</svg>
