<svg xmlns="http://www.w3.org/2000/svg" xmlns:xlink="http://www.w3.org/1999/xlink" width="58" height="42" viewBox="0 0 58 42">
    <defs>
        <path id="a" d="M0 90h90V0H0z"/>
    </defs>
    <g fill="none" fill-rule="evenodd" transform="translate(-16 -24)">
        <mask id="b" fill="#fff">
            <use xlink:href="#a"/>
        </mask>
        <path fill="#0B1560" d="M27.613 58.845h1.842V37.682h-1.842zM41.099 58.845h.706V37.681h-.706zM31.729 58.845h.706V37.682h-.706zM53.448 58.845h1.843V37.681h-1.843zM57.565 58.845h.706V37.681h-.706zM34.708 58.845h4.117V37.682h-4.117zM44.078 58.845h.706V37.681h-.706zM60.544 58.845h1.843V37.681h-1.843zM47.059 58.845h4.116V37.681h-4.116z" mask="url(#b)"/>
        <path stroke="#0B1560" stroke-width="2" d="M38.098 31.648h13.805" mask="url(#b)"/>
        <path stroke="#0B1560" d="M62.593 24.676H17.301v40.647h55.397V34.781z" mask="url(#b)"/>
        <path stroke="#0B1560" d="M72.698 34.782H62.594V24.677" mask="url(#b)"/>
    </g>
</svg>
