<svg xmlns="http://www.w3.org/2000/svg" xmlns:xlink="http://www.w3.org/1999/xlink" width="582" height="615" viewBox="0 0 582 615">
    <defs>
        <path id="a" d="M0 0h585v615H0z"/>
        <path id="b" d="M0 0h19v18H0z"/>
    </defs>
    <g fill="none" fill-rule="evenodd">
        <use fill="#F4F4F4" transform="translate(-2)" xlink:href="#a"/>
        <g transform="translate(31 23)">
            <mask id="c" fill="#fff">
                <use xlink:href="#b"/>
            </mask>
            <path fill="#585858" d="M18.612 2.15l-4.843 4.604 2.343 9.65L14.434 18l-4.139-7.943-3.28 3.118.006 2.417-1.303 1.236-1.475-2.799-2.916-1.37 1.377-1.292 2.36.026 3.328-3.144L0 4.353 1.73 2.73l10.195 2.194L16.738.37a1.374 1.374 0 0 1 1.874 0c.517.492.517 1.29 0 1.782" mask="url(#c)"/>
        </g>
        <g fill="#B9E5EA">
            <path d="M32 70h12v10.645H32zM32 82.419h12v10.645H32zM32 95h12v10.645H32zM32 119.677h12v10.645H32zM32 132.097h12v10.645H32zM32 144.516h12v10.645H32zM32 156.935h12v10.645H32zM32 169.355h12V180H32z"/>
        </g>
        <g fill="#B9E5EA">
            <path d="M206.491 70.12h11.84v10.66h-11.84zM206.491 82.556h11.84v10.659h-11.84zM206.491 94.99h11.84v10.66h-11.84zM206.491 107.426h11.84v10.659h-11.84zM206.491 119.86h11.84v10.66h-11.84zM206.491 132.296h11.84v10.659h-11.84zM206.491 144.73h11.84v10.66h-11.84zM206.491 157.166h11.84v10.659h-11.84zM206.491 169.6h11.84v10.66h-11.84zM206.491 182.036h11.84v10.659h-11.84z"/>
        </g>
        <g fill="#B9E5EA">
            <path d="M221.29 70.12h11.839v10.66h-11.84zM221.29 82.556h11.839v10.659h-11.84zM221.29 94.99h11.839v10.66h-11.84zM221.29 107.426h11.839v10.659h-11.84zM221.29 119.86h11.839v10.66h-11.84zM221.29 132.296h11.839v10.659h-11.84zM221.29 144.73h11.839v10.66h-11.84zM221.29 157.166h11.839v10.659h-11.84zM221.29 169.6h11.839v10.66h-11.84zM221.29 182.036h11.839v10.659h-11.84z"/>
        </g>
        <g fill="#D8D8D8">
            <path d="M221.29 359.085h11.839v10.659H221.29zM221 372h11.839v10.659H221zM221 383.955h11.839v10.659H221zM221.29 396.39h11.839v10.659H221.29zM221.29 408.825h11.839v10.659H221.29zM221.29 421.26h11.839v10.659H221.29z"/>
        </g>
        <g fill="#D8D8D8">
            <path d="M206.491 371.52h11.84v10.66h-11.84zM206.491 383.955h11.84v10.66h-11.84zM206.491 396.39h11.84v10.66h-11.84zM206.491 408.825h11.84v10.66h-11.84zM206.491 421.26h11.84v10.66h-11.84z"/>
        </g>
        <g fill="#B9E5EA">
            <path d="M64 70h12v10.696H64zM64 82.478h12v10.696H64zM64 94.957h12v10.696H64zM64 107h12v10.696H64zM32 107h12v10.696H32zM64 119.913h12v10.696H64zM64 132.391h12v10.696H64zM64 144.87h12v10.696H64zM64 157.348h12v10.696H64zM64 169.826h12v10.696H64zM64 182.304h12V193H64z"/>
        </g>
        <g fill="#B9E5EA">
            <path d="M110 70h12v10.645h-12zM110 82.419h12v10.645h-12zM110 94.839h12v10.645h-12zM110 107.258h12v10.645h-12zM110 119.677h12v10.645h-12zM110 132.097h12v10.645h-12zM110 144.516h12v10.645h-12zM110 156.935h12v10.645h-12zM110 169.355h12V180h-12z"/>
        </g>
        <g fill="#B9E5EA">
            <path d="M158 70h12v10.664h-12zM158 82.442h12v10.664h-12zM158 94.884h12v10.664h-12zM158 107.326h12v10.664h-12zM158 119.768h12v10.664h-12zM158 132.209h12v10.664h-12zM158 144.651h12v10.664h-12zM158 157.093h12v10.664h-12zM158 169.535h12v10.664h-12zM158 181.977h12v10.664h-12z"/>
        </g>
        <g fill="#B9E5EA">
            <path d="M173 70h12v10.664h-12zM173 82.442h12v10.664h-12zM173 94.884h12v10.664h-12zM173 107.326h12v10.664h-12zM173 119.768h12v10.664h-12zM173 132.209h12v10.664h-12zM173 144.651h12v10.664h-12zM173 157.093h12v10.664h-12zM173 169.535h12v10.664h-12z"/>
        </g>
        <g fill="#D8D8D8">
            <path d="M158 371.568h12v10.664h-12zM158 384.01h12v10.664h-12zM158 396.452h12v10.664h-12zM158 408.894h12v10.664h-12zM158 421.336h12V432h-12z"/>
        </g>
        <g fill="#D8D8D8">
            <path d="M173 359.126h12v10.664h-12zM173 371.568h12v10.664h-12zM173 384.01h12v10.664h-12zM173 396.452h12v10.664h-12zM173 408.894h12v10.664h-12zM173 421.335h12v10.664h-12z"/>
        </g>
        <g fill="#B9E5EA">
            <path d="M256 69.758h11.863V80.43H256zM256 82.208h11.863V92.88H256zM256 94.658h11.863v10.672H256zM256 107.109h11.863v10.672H256zM256 119.758h11.863v10.672H256zM271 119.758h11.863v10.672H271zM256 132.009h11.863v10.672H256zM256 144.459h11.863v10.672H256zM256 156.91h11.863v10.672H256zM256 169.36h11.863v10.672H256z"/>
        </g>
        <g fill="#B9E5EA">
            <path d="M270.828 69.758h11.863V80.43h-11.863zM270.828 82.208h11.863V92.88h-11.863zM270.828 94.658h11.863v10.672h-11.863zM270.828 107.109h11.863v10.672h-11.863zM270.828 132.009h11.863v10.672h-11.863zM270.828 144.459h11.863v10.672h-11.863zM270.828 156.91h11.863v10.672h-11.863zM270.828 169.36h11.863v10.672h-11.863zM270.828 181.81h11.863v10.672h-11.863z"/>
        </g>
        <g fill="#D8D8D8">
            <path d="M256 383.978h11.863v10.672H256zM256 396.428h11.863V407.1H256zM256 408.878h11.863v10.672H256zM256 421.329h11.863V432H256z"/>
        </g>
        <g fill="#D8D8D8">
            <path d="M270.828 359.077h11.863v10.672h-11.863zM270.828 371.527h11.863V382.2h-11.863zM270.828 383.977h11.863v10.672h-11.863zM270.828 396.428h11.863V407.1h-11.863zM270.828 408.878h11.863v10.672h-11.863zM270.828 421.328h11.863V432h-11.863z"/>
        </g>
        <g fill="#B9E5EA">
            <path d="M350.309 69.758h11.863V80.43h-11.863zM365.309 69.758h11.863V80.43h-11.863zM350.309 81.758h11.863V92.43h-11.863zM365.309 81.758h11.863V92.43h-11.863zM350.309 94.658h11.863v10.672h-11.863zM350.309 107.109h11.863v10.672h-11.863zM350.309 119.559h11.863v10.672h-11.863zM350.309 132.009h11.863v10.672h-11.863zM350.309 144.459h11.863v10.672h-11.863zM350.309 156.91h11.863v10.672h-11.863zM350.309 169.36h11.863v10.672h-11.863zM350.309 181.81h11.863v10.672h-11.863z"/>
        </g>
        <g fill="#B9E5EA">
            <path d="M365.137 94.658H377v10.672h-11.863zM365.137 107.108H377v10.672h-11.863zM365.137 119.559H377v10.672h-11.863zM365.137 132.009H377v10.672h-11.863zM365.137 144.459H377v10.672h-11.863zM365.137 156.909H377v10.672h-11.863zM365.137 169.36H377v10.672h-11.863zM365.137 181.81H377v10.672h-11.863zM365.137 194.26H377v10.672h-11.863z"/>
        </g>
        <g fill="#D8D8D8">
            <path d="M350.309 396.428h11.863V407.1h-11.863zM350.309 408.878h11.863v10.672h-11.863zM350.309 421.328h11.863V432h-11.863z"/>
        </g>
        <g fill="#D8D8D8">
            <path d="M365.137 383.978H377v10.672h-11.863zM365.137 396.428H377V407.1h-11.863zM365.137 408.878H377v10.672h-11.863zM365.137 421.329H377V432h-11.863z"/>
        </g>
        <g fill="#B9E5EA">
            <path d="M304 70h12v10.664h-12zM304 82.442h12v10.664h-12zM304 94.884h12v10.664h-12zM304 107.326h12v10.664h-12zM304 119.768h12v10.664h-12zM304 132.209h12v10.664h-12zM304 144.651h12v10.664h-12zM304 157.093h12v10.664h-12zM304 169.535h12v10.664h-12z"/>
        </g>
        <g fill="#B9E5EA">
            <path d="M319 70h12v10.664h-12zM319 82.442h12v10.664h-12zM319 94.884h12v10.664h-12zM319 107.326h12v10.664h-12zM319 119.768h12v10.664h-12zM319 132.209h12v10.664h-12zM319 144.651h12v10.664h-12zM319 157.093h12v10.664h-12z"/>
        </g>
        <g fill="#D8D8D8">
            <path d="M304 384.01h12v10.664h-12zM304 396.452h12v10.664h-12zM304 408.894h12v10.664h-12zM304 421.336h12V432h-12z"/>
        </g>
        <g fill="#D8D8D8">
            <path d="M319 384.01h12v10.664h-12zM319 396.452h12v10.664h-12zM319 408.894h12v10.664h-12zM319 421.336h12V432h-12z"/>
        </g>
        <g fill="#B9E5EA">
            <path d="M398.243 70h11.892v10.664h-11.892zM398.243 82.442h11.892v10.664h-11.892zM398 107h11.892v10.664H398zM398 94.884h11.892v10.664H398zM398.243 119.768h11.892v10.664h-11.892zM398.243 132.209h11.892v10.664h-11.892zM398.243 144.651h11.892v10.664h-11.892zM398.243 157.093h11.892v10.664h-11.892z"/>
        </g>
        <g fill="#B9E5EA">
            <path d="M413.108 70H425v10.664h-11.892zM413.108 82.442H425v10.664h-11.892zM413.108 95H425v10.664h-11.892zM413.108 107.326H425v10.664h-11.892zM413.108 119.768H425v10.664h-11.892zM413.108 132.209H425v10.664h-11.892zM413.108 144.651H425v10.664h-11.892zM413.108 157.093H425v10.664h-11.892z"/>
        </g>
        <g fill="#D8D8D8">
            <path d="M398.243 396.452h11.892v10.664h-11.892zM398.243 408.894h11.892v10.664h-11.892zM398.243 421.336h11.892V432h-11.892z"/>
        </g>
        <g fill="#D8D8D8">
            <path d="M413.108 359.126H425v10.664h-11.892zM413.108 371.568H425v10.664h-11.892zM413.108 384.01H425v10.664h-11.892zM413.108 396.126H425v10.664h-11.892zM413.108 408.242H425v10.664h-11.892zM413.108 421.335H425v10.664h-11.892z"/>
        </g>
        <g>
            <g fill="#B9E5EA">
                <path d="M446.125 70h11.944v10.664h-11.944zM446.125 82.442h11.944v10.664h-11.944zM446.125 94.884h11.944v10.664h-11.944zM446.125 107.326h11.944v10.664h-11.944zM446.125 132.209h11.944v10.664h-11.944zM446.125 144.651h11.944v10.664h-11.944zM446.125 157.093h11.944v10.664h-11.944zM446.125 169.535h11.944v10.664h-11.944zM446.125 181.977h11.944v10.664h-11.944z"/>
            </g>
            <g fill="#B9E5EA">
                <path d="M461.056 70H473v10.664h-11.944zM461.056 82.442H473v10.664h-11.944zM461.056 94.884H473v10.664h-11.944zM461.056 107.326H473v10.664h-11.944zM461.056 120H473v10.664h-11.944zM446.056 120H458v10.664h-11.944zM461.056 132.209H473v10.664h-11.944zM461.056 144.651H473v10.664h-11.944zM461.056 157.093H473v10.664h-11.944zM461.056 169.535H473v10.664h-11.944zM461.056 181.977H473v10.664h-11.944z"/>
            </g>
            <g fill="#D8D8D8">
                <path d="M446.125 371.568h11.944v10.664h-11.944zM446.125 384.01h11.944v10.664h-11.944zM446.125 396.452h11.944v10.664h-11.944zM446.125 408.894h11.944v10.664h-11.944zM446.125 421.336h11.944V432h-11.944z"/>
            </g>
            <g fill="#D8D8D8">
                <path d="M461.056 384.01H473v10.664h-11.944zM461.056 396.452H473v10.664h-11.944zM461.056 408.894H473v10.664h-11.944zM461.056 421.336H473V432h-11.944z"/>
            </g>
        </g>
        <g fill="#B9E5EA">
            <path d="M492 70h12v10.691h-12zM492 82.473h12v10.691h-12zM492 94.945h12v10.691h-12zM492 107.418h12v10.691h-12zM492 119.891h12v10.691h-12zM492 132.364h12v10.691h-12zM492 144.836h12v10.691h-12zM492 157.309h12V168h-12z"/>
        </g>
        <g fill="#B9E5EA">
            <path d="M507 70h12v10.625h-12zM507 82.396h12v10.625h-12zM507 94.792h12v10.625h-12zM507 107.188h12v10.625h-12zM507 119.583h12v10.625h-12zM507 131.979h12v10.625h-12zM507 144.375h12V155h-12z"/>
        </g>
        <g fill="#B9E5EA">
            <path d="M537 70h12v10.645h-12zM537 82.419h12v10.645h-12zM537 94.839h12v10.645h-12zM537 107.258h12v10.645h-12zM537 119.677h12v10.645h-12zM537 132.097h12v10.645h-12zM537 144.516h12v10.645h-12zM537 156.935h12v10.645h-12zM537 169.355h12V180h-12z"/>
        </g>
        <g fill="#D8D8D8">
            <path d="M492 396h12v10.8h-12zM492 408.6h12v10.8h-12zM492 421.2h12V432h-12z"/>
        </g>
        <g fill="#D8D8D8">
            <path d="M507 384h12v10.667h-12zM507 396.444h12v10.667h-12zM507 408.889h12v10.667h-12zM507 421.333h12V432h-12z"/>
        </g>
        <g fill="#D8D8D8">
            <path d="M537 372h12v10.588h-12zM537 384.353h12v10.588h-12zM537 396.706h12v10.588h-12zM537 409.059h12v10.588h-12zM537 421.412h12V432h-12z"/>
        </g>
        <g fill="#B9E5EA">
            <path d="M79 70h12v10.645H79zM79 82.419h12v10.645H79zM79 94.839h12v10.645H79zM79 107.258h12v10.645H79zM79 119.677h12v10.645H79zM79 132.097h12v10.645H79zM79 144.516h12v10.645H79zM79 156.935h12v10.645H79zM79 169.355h12V180H79z"/>
        </g>
        <g fill="#B9E5EA">
            <path d="M125 70h12v10.658h-12zM125 82.434h12v10.658h-12zM125 94.868h12v10.658h-12zM125 107.303h12v10.658h-12zM125 119.737h12v10.658h-12zM125 132.171h12v10.658h-12zM125 144.605h12v10.658h-12zM125 157.039h12v10.658h-12zM125 169.474h12v10.658h-12zM125 181.908h12v10.658h-12zM125 194.342h12V205h-12z"/>
        </g>
        <g fill="#D8D8D8">
            <path d="M32 396h12v10.8H32zM32 408.6h12v10.8H32zM32 421.2h12V432H32z"/>
        </g>
        <g fill="#D8D8D8">
            <path d="M64 384h12v10.667H64zM64 396.444h12v10.667H64zM64 408.889h12v10.667H64zM64 421.333h12V432H64z"/>
        </g>
        <g fill="#D8D8D8">
            <path d="M110.148 372H122v10.612h-11.852zM110.148 384.381H122v10.612h-11.852zM110.148 396.761H122v10.612h-11.852zM110 409h11.852v10.612H110zM110 421.239h11.852v10.612H110z"/>
        </g>
        <path fill="#D8D8D8" d="M79 396h12v11H79zM79 409h12v11H79zM79 421h12v11H79z"/>
        <g fill="#D8D8D8">
            <path d="M125 384h12v10.667h-12zM125 396.444h12v10.667h-12zM125 408.889h12v10.667h-12zM125 421.333h12V432h-12z"/>
        </g>
        <g fill="#3AC9C6">
            <path d="M32 207.155h11.858v10.674H32zM32 232.061h11.858v10.674H32zM78.838 207.155h11.858v10.674H78.838zM110.261 207.155h11.858v10.674h-11.858zM125.084 232.061h11.858v10.674h-11.858zM158.286 207.155h11.858v10.674h-11.858zM173.108 194.702h11.858v10.674h-11.858zM206.31 207.155h11.858v10.674H206.31zM256.112 194.702h11.858v10.674h-11.858zM304.136 194.702h11.858v10.674h-11.858zM318.959 182.249h11.858v10.674h-11.858zM350.382 207.155h11.858v10.674h-11.858zM365.204 207.155h11.858v10.674h-11.858zM398.406 169.796h11.858v10.674h-11.858zM413.228 169.796h11.858v10.674h-11.858zM445.837 194.702h11.858v10.674h-11.858zM460.659 194.702h11.858v10.674h-11.858zM492.083 169.796h11.858v10.674h-11.858zM506.905 157.344h11.858v10.674h-11.858zM537.142 169.796H549v10.674h-11.858zM398.406 182.249h11.858v10.674h-11.858zM413.228 182.249h11.858v10.674h-11.858zM445.837 207.155h11.858v10.674h-11.858zM460.659 207.155h11.858v10.674h-11.858zM492.083 182.249h11.858v10.674h-11.858zM506.905 169.796h11.858v10.674h-11.858zM537.142 182.249H549v10.674h-11.858zM270.935 207.155h11.858v10.674h-11.858zM221.132 207.155h11.858v10.674h-11.858zM78.838 244.514h11.858v10.674H78.838zM110.261 244.514h11.858v10.674h-11.858zM125.084 269.42h11.858v10.674h-11.858zM158.286 244.514h11.858v10.674h-11.858zM173.108 232.061h11.858v10.674h-11.858zM206.31 244.514h11.858v10.674H206.31zM256.112 232.061h11.858v10.674h-11.858zM304.136 232.061h11.858v10.674h-11.858zM318.959 219.608h11.858v10.674h-11.858zM350.382 244.514h11.858v10.674h-11.858zM365.204 244.514h11.858v10.674h-11.858zM398.406 207.155h11.858v10.674h-11.858zM413.228 207.155h11.858v10.674h-11.858zM445.837 232.061h11.858v10.674h-11.858zM460.659 232.061h11.858v10.674h-11.858zM492.083 207.155h11.858v10.674h-11.858zM506.905 194.702h11.858v10.674h-11.858zM537.142 207.155H549v10.674h-11.858zM492.083 232.061h11.858v10.674h-11.858zM506.905 219.608h11.858v10.674h-11.858zM537.142 232.061H549v10.674h-11.858zM270.935 244.514h11.858v10.674h-11.858zM221.132 244.514h11.858v10.674h-11.858zM64.016 194.702h11.858v10.674H64.016zM64.016 232.061h11.858v10.674H64.016zM32 182.249h11.858v10.674H32zM78.838 182.249h11.858v10.674H78.838zM110.261 182.249h11.858v10.674h-11.858zM125.084 207.155h11.858v10.674h-11.858zM64.016 169.796h11.858v10.674H64.016zM32 219.608h11.858v10.674H32zM32 244.514h11.858v10.674H32zM78.838 219.608h11.858v10.674H78.838zM110.261 219.608h11.858v10.674h-11.858zM125.084 244.514h11.858v10.674h-11.858zM173.108 207.155h11.858v10.674h-11.858zM206.31 219.608h11.858v10.674H206.31zM256.112 207.155h11.858v10.674h-11.858zM304.136 207.155h11.858v10.674h-11.858zM318.959 194.702h11.858v10.674h-11.858zM350.382 219.608h11.858v10.674h-11.858zM365.204 219.608h11.858v10.674h-11.858zM270.935 219.608h11.858v10.674h-11.858zM221.132 219.608h11.858v10.674h-11.858zM78.838 256.967h11.858v10.674H78.838zM110.261 256.967h11.858v10.674h-11.858zM125.084 281.873h11.858v10.674h-11.858zM158.286 256.967h11.858v10.674h-11.858zM173.108 244.514h11.858v10.674h-11.858zM206.31 256.967h11.858v10.674H206.31zM256.112 244.514h11.858v10.674h-11.858zM304.136 244.514h11.858v10.674h-11.858zM318.959 232.061h11.858v10.674h-11.858zM350.382 256.967h11.858v10.674h-11.858zM365.204 256.967h11.858v10.674h-11.858zM398.406 219.608h11.858v10.674h-11.858zM413.228 219.608h11.858v10.674h-11.858zM460.659 244.514h11.858v10.674h-11.858zM492.083 219.608h11.858v10.674h-11.858zM506.905 207.155h11.858v10.674h-11.858zM537.142 219.608H549v10.674h-11.858zM492.083 244.514h11.858v10.674h-11.858zM506.905 232.061h11.858v10.674h-11.858zM537.142 244.514H549v10.674h-11.858zM256.112 256.967h11.858v10.674h-11.858zM304.136 256.967h11.858v10.674h-11.858zM318.959 244.514h11.858v10.674h-11.858zM350.382 269.42h11.858v10.674h-11.858zM365.204 269.42h11.858v10.674h-11.858zM398.406 232.061h11.858v10.674h-11.858zM413 232h11.858v10.674H413zM413 245h11.858v10.674H413zM413.228 256.967h11.858v10.674h-11.858zM256.112 269.42h11.858v10.674h-11.858zM304.136 269.42h11.858v10.674h-11.858zM318.959 256.967h11.858v10.674h-11.858zM270.935 256.967h11.858v10.674h-11.858zM221.132 256.967h11.858v10.674h-11.858zM78.838 269.42h11.858v10.674H78.838zM110.261 269.42h11.858v10.674h-11.858zM125.084 294.326h11.858V305h-11.858zM158.286 269.42h11.858v10.674h-11.858zM173.108 256.967h11.858v10.674h-11.858zM64.016 207.155h11.858v10.674H64.016zM64.016 219.608h11.858v10.674H64.016zM64.016 244.514h11.858v10.674H64.016zM32 194.702h11.858v10.674H32zM78.838 194.702h11.858v10.674H78.838zM110.261 194.702h11.858v10.674h-11.858zM125.084 219.608h11.858v10.674h-11.858zM158.286 194.702h11.858v10.674h-11.858zM173.108 182.249h11.858v10.674h-11.858zM206.31 194.702h11.858v10.674H206.31zM256.112 182.249h11.858v10.674h-11.858zM304.136 182.249h11.858v10.674h-11.858zM318.959 169.796h11.858v10.674h-11.858zM350.382 194.702h11.858v10.674h-11.858zM270.935 194.702h11.858v10.674h-11.858zM221.132 194.702h11.858v10.674h-11.858zM78.838 232.061h11.858v10.674H78.838zM110.261 232.061h11.858v10.674h-11.858zM125.084 256.967h11.858v10.674h-11.858zM158.286 232.061h11.858v10.674h-11.858zM173 220h11.858v10.674H173zM158.178 220h11.858v10.674h-11.858zM206.31 232.061h11.858v10.674H206.31zM256.112 219.608h11.858v10.674h-11.858zM304.136 219.608h11.858v10.674h-11.858zM318.959 207.155h11.858v10.674h-11.858zM350.382 232.061h11.858v10.674h-11.858zM365.204 232.061h11.858v10.674h-11.858zM398.406 194.702h11.858v10.674h-11.858zM413.228 194.702h11.858v10.674h-11.858zM445.837 219.608h11.858v10.674h-11.858zM460.659 219.608h11.858v10.674h-11.858zM492.083 194.702h11.858v10.674h-11.858zM506.905 182.249h11.858v10.674h-11.858zM537.142 194.702H549v10.674h-11.858zM270.935 232.061h11.858v10.674h-11.858zM221.132 232.061h11.858v10.674h-11.858zM64.016 182.249h11.858v10.674H64.016z"/>
        </g>
        <g stroke="#7A7A7A" transform="translate(49 56)">
            <rect width="9" height="388" x=".5" y=".5" rx="3"/>
            <rect width="9" height="388" x="47.5" y=".5" rx="3"/>
            <rect width="9" height="388" x="94.5" y=".5" rx="3"/>
            <rect width="9" height="388" x="142.5" y=".5" rx="3"/>
            <rect width="9" height="388" x="190.5" y=".5" rx="3"/>
            <rect width="9" height="388" x="238.5" y=".5" rx="3"/>
            <rect width="9" height="388" x="286.5" y=".5" rx="3"/>
            <rect width="9" height="388" x="334.5" y=".5" rx="3"/>
            <rect width="9" height="388" x="382.5" y=".5" rx="3"/>
            <rect width="9" height="388" x="429.5" y=".5" rx="3"/>
            <rect width="9" height="388" x="475.5" y=".5" rx="3"/>
        </g>
        <path fill="#B9E5EA" d="M32 506h12v11H32z"/>
        <path fill="#29CDE0" d="M32 526h12v11H32z"/>
        <path fill="#D8D8D8" d="M32 546h12v11H32z"/>
        <text fill="#1E1E1E" font-family="Amplitude-Medium, Amplitude" font-size="12" font-weight="400" transform="translate(-2)">
            <tspan x="62" y="31">AIRSIDE</tspan>
        </text>
        <text fill="#1E1E1E" font-family="Amplitude-Medium, Amplitude" font-size="12" font-weight="400" transform="translate(-2)">
            <tspan x="66" y="470">LANDSIDE</tspan>
        </text>
        <text fill="#1E1E1E" font-family="Amplitude-Regular, Amplitude" font-size="12" transform="translate(-2)">
            <tspan x="65" y="512">TO PLANES</tspan>
        </text>
        <text fill="#1E1E1E" font-family="Amplitude-Regular, Amplitude" font-size="12" transform="translate(-2)">
            <tspan x="65" y="531">SHIPMENTS IN TRANSIT</tspan>
        </text>
        <text fill="#1E1E1E" font-family="Amplitude-Regular, Amplitude" font-size="12" transform="translate(-2)">
            <tspan x="65" y="550">TO TRUCKS</tspan>
        </text>
        <g fill="#585858">
            <path d="M32.724 472.86h14.51V466h-14.51z"/>
            <path d="M32.315 475.552v-2.802l14.18-.055-.234 2.836-5.557-.01C40 473.674 39.19 472.94 37.91 473c-1.258.057-2.088.872-2.573 2.552h-3.022z"/>
            <path d="M52.022 471.726c0-1.687-.69-2.97-.976-3.505-.286-.536-.429-.737-1.191-.737h-1.932v2.728h1.385c.582 0 .873.224 1.005.587.076.208.176.517.3.927h1.409zm-5.437-4.887c1.38 0 2.73-.02 4.078.02.217.007.51.23.628.442 1.406 2.528 1.812 4.804 1.458 8.006h-1.307c-.15-2.83-4.632-3.473-5.215.245l.358-8.713z"/>
            <path d="M48.952 476.796c.489-.078.843-.393.847-.985.005-.606-.363-.958-.906-.96-.55-.002-.897.371-.895.97.001.598.341.922.954.975m-.06-2.956c1.037-.007 1.835.86 1.834 1.993-.001 1.075-.803 1.964-1.783 1.98-1.023.015-1.869-.87-1.88-1.968-.011-1.12.79-1.997 1.83-2.005M38.045 476.795c.533-.083.875-.394.852-1.008-.023-.607-.38-.958-.925-.94-.547.018-.895.414-.875 1.002.02.583.372.915.948.946m-.008-2.953c1.02.012 1.84.932 1.81 2.031-.031 1.075-.852 1.936-1.838 1.93-1.034-.008-1.855-.899-1.842-2 .014-1.122.825-1.972 1.87-1.96"/>
        </g>
    </g>
</svg>
