<svg xmlns="http://www.w3.org/2000/svg" width="78" height="69" viewBox="0 0 78 69">
    <g fill="none" fill-rule="evenodd">
        <path stroke="#0B1560" d="M4 68h19l-.594-68"/>
        <path fill="#0B1560" d="M8 15.978a7 7 0 0 0-6.997 6.997A7 7 0 0 0 8 29.971a7 7 0 0 0 6.997-6.996A7 7 0 0 0 8 15.978M8 31c-4.414 0-8-3.586-8-8s3.586-8 8-8 8 3.586 8 8-3.586 8-8 8"/>
        <path fill="#0B1560" d="M10.477 25a.742.742 0 0 1-.234-.052l-2.958-1.42A.49.49 0 0 1 7 23.063v-4.546a.519.519 0 0 1 1.037 0v4.236l2.673 1.292c.26.128.364.438.234.696-.078.156-.285.259-.467.259"/>
        <path stroke="#0B1560" d="M33 62c0 2.21 1.566 4 3.5 4 1.933 0 3.5-1.79 3.5-4M45 62c0 2.21 1.566 4 3.5 4 1.933 0 3.5-1.79 3.5-4M56 62c0 2.21 1.567 4 3.5 4 1.934 0 3.5-1.79 3.5-4M68 62c0 2.21 1.566 4 3.5 4 1.933 0 3.5-1.79 3.5-4"/>
        <path fill="#0B1560" d="M74.451 25H33.548c-.856 0-1.548.772-1.548 1.724v14.798c0 .297.069.59.2.848l5.465 10.756c.274.54.79.874 1.349.874h29.972c.557 0 1.073-.334 1.348-.874l5.465-10.756c.132-.257.201-.551.201-.848V26.724c0-.952-.694-1.724-1.549-1.724"/>
        <path stroke="#0B1560" d="M74.451 25H33.548c-.856 0-1.548.772-1.548 1.724v14.798c0 .297.069.59.2.848l5.465 10.756c.274.54.79.874 1.349.874h29.972c.557 0 1.073-.334 1.348-.874l5.465-10.756c.132-.257.201-.551.201-.848V26.724c0-.952-.694-1.724-1.549-1.724zM30 60h48"/>
        <path stroke="#FFF" d="M40 39h26M60 31l6 7.999L60 47"/>
    </g>
</svg>
