<svg xmlns="http://www.w3.org/2000/svg" width="188" height="159" viewBox="0 0 188 159">
    <g fill="none" fill-rule="evenodd">
        <path stroke="#3AC9C6" stroke-linejoin="round" d="M186.991 40.3l-1.386-11.969-2.217 10.829-1.11-3.99-3.048 3.99-1.664-8.55-2.494 4.56-2.772 4.56-1.11-8.55-.554 6.84-1.94 2.85-.832-12.539-2.772 10.829-1.385-6.27-1.386 9.69-1.11-10.83-1.108 6.27-.832-3.42-1.663 6.27-1.109-5.13-1.386 10.829-1.108-9.12h-1.11l-1.108 10.83v-10.83h-1.386l-.832 6.27-.554-8.549-2.218 3.99-.831-8.55-1.109 7.41-.554 14.248-1.11-16.528h-.83l-1.11 7.41-.831-7.41-1.663 2.28-2.218-4.56-1.109 17.668-1.386-18.807-.831 6.839-2.772-9.12v4.56l-.555-2.85h-1.663l-1.109 11.97V27.19l-2.772 7.41-.831 22.796-1.663-19.377-.555 5.7-1.386-1.71-1.109 16.527V37.45l-.554 5.13-3.604-2.28-1.94 6.839-1.109-9.69-.554 17.669-.832-14.818-2.495.57-.554 11.968-1.386-9.119-.832 8.549-.554-11.968-.832 12.538L103 36.31l-1.109 9.119-3.049-11.399-1.109 12.539v-6.27l-2.217 4.56-1.94-6.27-2.218 2.85-.555 14.818-1.386-14.248-1.108 1.71-.832 5.13-.832-9.69-1.108 17.098-1.94-17.667-1.11 7.979-.831-13.109-1.386.57V44.86l-1.109 2.28-.832-6.27h-1.663l-1.109 7.98-.554-9.69-1.386 6.27-.554-6.27-1.11 12.539L71.4 37.45l-.832 9.119-.832-8.55-1.386 7.41-.554-9.689-1.386 14.248-1.109-2.85-.831 10.26-.832-22.228-1.94 10.259-.832 15.958L59.48 38.59l-2.218 13.678-2.217-14.248-1.109 10.828-.832-6.269-.831 11.399V39.73l-1.109 9.688-1.109-10.828-.831 16.528-.832-14.818-.554 7.409-1.386 2.85-1.664-11.97-1.94 13.679-1.386-13.678-.554 12.538-1.94-6.839-2.773.57-1.386 13.678-.554-8.549-.832 7.98-1.663-7.98-1.663-9.688-2.772 7.978-.442 7.046-.667 10.622-.854-17.204-.532-10.722-3.603-4.56-2.218 6.27L17.9 53.408l-.416-16.243-1.663 4.56-.831-7.98-3.327 2.28-1.109-6.27-2.771 6.27-.832-6.27-.832 6.27-1.108-5.13-1.11 5.13-1.94-1.71-.831 4.56"/>
        <path stroke="#0B1560" d="M1.13 23.057h185.723"/>
        <g stroke="#8E8E8E" stroke-dasharray="1,5">
            <path d="M2.5 25v119V25zM18.5 25v119V25zM33.5 25v119V25zM48.5 25v119V25zM64.5 25v119V25zM79.5 25v119V25zM94.5 25v119V25zM110.5 25v119V25zM125.5 25v119V25zM140.5 25v119V25zM156.5 25v119V25zM171.5 25v119V25zM186.5 25v119V25z"/>
        </g>
        <text fill="#1E1E1E" font-family="Amplitude-Regular, Amplitude" font-size="12" transform="translate(0 -14)">
            <tspan x="0" y="166.489">2018–2019</tspan>
        </text>
        <path fill="#0B1560" d="M1 132h28v11H1zM1 22.772h28v11H1z"/>
        <text fill="#FFF" font-family="Amplitude-Regular, Amplitude" font-size="8" letter-spacing=".5" transform="translate(0 -14)">
            <tspan x="9.13" y="151">0</tspan> <tspan x="14.198" y="151">%</tspan>
        </text>
        <text fill="#FFF" font-family="Amplitude-Regular, Amplitude" font-size="8" letter-spacing=".5" transform="translate(0 -14)">
            <tspan x="4.794" y="41.772">100</tspan> <tspan x="18.534" y="41.772">%</tspan>
        </text>
        <text fill="#0B1560" font-family="Amplitude-Light" font-size="20" font-weight="300" transform="translate(0 -14)">
            <tspan x="140.32" y="16">+86%</tspan>
        </text>
        <text fill="#1E1E1E" font-family="Amplitude-Regular, Amplitude" font-size="12" transform="translate(0 -14)">
            <tspan x="2" y="21.804">FLOWN AS BOOKED </tspan>
        </text>
        <path stroke="#0B1560" d="M1.268 142.714h185.723"/>
    </g>
</svg>
