<svg xmlns="http://www.w3.org/2000/svg" width="24" height="24" viewBox="0 0 24 24">
    <path fill="#0B1560" fill-rule="evenodd" d="M15.641 15.885l-1.68 1.875a.191.191 0 0 1-.135.053.202.202 0 0 1-.079 0 .22.22 0 0 1-.067-.038A9.469 9.469 0 0 1 8.85 7.207a.214.214 0 0 1 0-.075.195.195 0 0 1 .037-.067.213.213 0 0 1 .14-.064l2.508-.056c.103.001.19.078.203.18l.307 2.857a.199.199 0 0 1-.113.203l-1.62.75a7.947 7.947 0 0 0 1.5 3.281l1.613-.75a.202.202 0 0 1 .225.05l1.961 2.103a.21.21 0 0 1 .03.266M12 0C5.372 0 0 5.373 0 12s5.372 12 12 12c6.627 0 12-5.373 12-12S18.627 0 12 0"/>
</svg>
