<svg xmlns="http://www.w3.org/2000/svg" width="61" height="61" viewBox="0 0 61 61">
    <g fill="none" fill-rule="evenodd">
        <path fill="#0B1560" d="M31.936 38.308a8.114 8.114 0 0 1-7.212-4.383h7.212v-2.504h-8.039a8.307 8.307 0 0 1-.1-1.252c0-.426.038-.84.1-1.253h8.04v-2.504h-7.213a8.128 8.128 0 0 1 7.212-4.383c2.016 0 3.87.74 5.297 1.966l2.216-2.216a11.213 11.213 0 0 0-7.513-2.88c-4.908 0-9.065 3.143-10.618 7.513H16.91v2.504h3.832a10.345 10.345 0 0 0 0 2.505H16.91v2.504h4.408c1.553 4.37 5.71 7.513 10.618 7.513a11.19 11.19 0 0 0 7.513-2.88l-2.228-2.216a8.02 8.02 0 0 1-5.285 1.966"/>
        <path stroke="#0B1560" stroke-width=".5" d="M60 30.5C60 46.793 46.793 60 30.5 60S1 46.793 1 30.5C1 14.208 14.207 1 30.5 1S60 14.208 60 30.5z"/>
    </g>
</svg>
