<svg xmlns="http://www.w3.org/2000/svg" width="61" height="61" viewBox="0 0 61 61">
    <g fill="none" fill-rule="evenodd">
        <path stroke="#0B1560" stroke-width=".5" d="M60 30.5C60 46.793 46.792 60 30.5 60S1 46.793 1 30.5C1 14.208 14.208 1 30.5 1S60 14.208 60 30.5z"/>
        <path fill="#0B1560" d="M37.858 23.142h-6.132a2.46 2.46 0 0 0-2.452 2.452v2.797a2.428 2.428 0 0 0-1.227 2.109 2.46 2.46 0 0 0 2.453 2.453 2.46 2.46 0 0 0 2.453-2.453c0-.908-.49-1.692-1.227-2.11v-2.796h3.68v9.812h-9.812v-9.812h2.453v-2.452h-4.905v14.716h14.716V23.142zm-17.17 17.17h19.623V20.688H20.69V40.31zm19.623-22.076H20.69a2.46 2.46 0 0 0-2.453 2.453V40.31a2.46 2.46 0 0 0 2.453 2.453H40.31a2.46 2.46 0 0 0 2.453-2.453V20.69a2.46 2.46 0 0 0-2.453-2.453z"/>
    </g>
</svg>
