<svg xmlns="http://www.w3.org/2000/svg" xmlns:xlink="http://www.w3.org/1999/xlink" width="10" height="14" viewBox="0 0 10 14"> 
    <g fill="none" fill-rule="evenodd" transform="translate(-1 -3)">
        <path fill="#0B1560" d="M6.385 9.222c-1.275 0-2.308-1.045-2.308-2.333 0-1.289 1.033-2.333 2.308-2.333 1.274 0 2.307 1.044 2.307 2.333 0 1.288-1.033 2.333-2.307 2.333m0-6.222C4.26 3 2.538 4.776 2.538 6.966 2.538 7.943 3.686 10 3.686 10l2.699 4.667L8.928 10s1.303-2.072 1.303-3.034C10.23 4.776 8.509 3 6.385 3M6 17c-2.976 0-5-.74-5-1.653 0-.632.763-1.179 2.456-1.458.1.142.377.256.47.381-.454.137-1.177.319-1.177.52 0 .425 1.726.92 3.25.92 1.523 0 3.252-.495 3.252-.92 0-.201-.725-.382-1.179-.518.095-.127.372-.241.473-.383 1.692.28 2.455.826 2.455 1.458C11 16.259 8.976 17 6 17" mask="url(#b)"/>
    </g>
</svg>
