<svg xmlns="http://www.w3.org/2000/svg" width="61" height="61" viewBox="0 0 61 61">
    <g fill="none" fill-rule="evenodd">
        <path stroke="#0B1560" stroke-width=".5" d="M60 30.5C60 46.793 46.793 60 30.5 60 14.208 60 1 46.793 1 30.5 1 14.208 14.208 1 30.5 1 46.793 1 60 14.208 60 30.5z"/>
        <path fill="#0B1560" d="M21.192 28.119a1.862 1.862 0 0 0 1.873-1.855 1.862 1.862 0 0 0-1.873-1.856 1.862 1.862 0 0 0-1.874 1.856c0 1.026.837 1.855 1.874 1.855m22.227-1.507c.209-4.786-3.774-8.972-8.61-9.038-4.89-.067-8.867 3.83-8.867 8.657 0 4.293 3.147 7.843 7.281 8.523v4.873h-9.991v-3.71h1.249v-4.948c0-.68-.562-1.237-1.25-1.237h-3.746c-.687 0-1.249.557-1.249 1.237v4.948h1.249V42.1h19.983v-2.474h-3.747v-4.799c4.21-.492 7.512-3.949 7.698-8.216"/>
    </g>
</svg>
