<svg xmlns="http://www.w3.org/2000/svg" width="61" height="61" viewBox="0 0 61 61">
    <g fill="none" fill-rule="evenodd">
        <path stroke="#0B1560" stroke-width=".5" d="M60 30.5C60 46.793 46.792 60 30.5 60 14.207 60 1 46.793 1 30.5 1 14.208 14.207 1 30.5 1 46.792 1 60 14.208 60 30.5z"/>
        <path fill="#0B1560" d="M43.427 29.274h-5.114l3.973-3.974-1.729-1.741-5.715 5.715H32.39V26.82l5.715-5.715-1.741-1.73-3.974 3.974v-5.114h-2.452v5.114l-3.974-3.973-1.742 1.729 5.716 5.715v2.453h-2.453l-5.715-5.715-1.73 1.741 3.974 3.974h-5.114v2.452h5.114L20.039 35.7l1.73 1.741 5.715-5.715h2.453v2.453l-5.716 5.715 1.742 1.73 3.974-3.974v5.114h2.452V37.65l3.974 3.973 1.741-1.729-5.715-5.715v-2.453h2.453l5.715 5.715 1.73-1.741-3.974-3.974h5.114z"/>
    </g>
</svg>
