<svg xmlns="http://www.w3.org/2000/svg" width="24" height="24" viewBox="0 0 24 24">
    <g fill="none" fill-rule="evenodd">
        <path fill="#0B1560" d="M12 0C5.383 0 0 5.383 0 12s5.383 12 12 12 12-5.383 12-12S18.617 0 12 0"/>
        <path fill="#FFF" d="M14.128 10.653h-.414a.415.415 0 0 0-.415.414v6.218c0 .23.186.415.415.415h.414v.415H9.983V17.7h.414a.414.414 0 0 0 .415-.415v-6.218a.415.415 0 0 0-.415-.414h-.414v-.415h4.145v.415zm-2.072-4.767a1.45 1.45 0 1 1 0 2.901 1.45 1.45 0 0 1 0-2.901z"/>
    </g>
</svg>
