<svg xmlns="http://www.w3.org/2000/svg" width="137" height="215" viewBox="0 0 137 215">
    <g fill="none" fill-rule="evenodd">
        <path fill="#FFF" d="M36.555 129L30 214l38.003-28.61L106 214l-6.555-85"/>
        <path stroke="#22225C" d="M36.754 128.99l-6.574 84.662 38.117-28.496 38.112 28.496-6.574-84.663"/>
        <path fill="#FFF" d="M135.864 68.386c0 37.384-30.255 67.694-67.572 67.694-37.311 0-67.566-30.31-67.566-67.694S30.98.692 68.292.692c37.317 0 67.572 30.31 67.572 67.694"/>
        <path stroke="#22225C" d="M135.864 68.386c0 37.384-30.255 67.694-67.572 67.694-37.311 0-67.566-30.31-67.566-67.694S30.98.692 68.292.692c37.317 0 67.572 30.31 67.572 67.694z"/>
        <path stroke="#22225C" d="M18.207 54.98c7.387 0 13.381 6.005 13.381 13.405 0 7.406-5.994 13.41-13.381 13.41M117.6 54.98c-7.386 0-13.38 6.005-13.38 13.405 0 7.406 5.994 13.41 13.38 13.41M39.094 20.793c5.223 5.232 5.223 13.725 0 18.963-5.228 5.237-13.7 5.237-18.934 0M116.348 39.755c-5.222 5.237-13.7 5.237-18.928 0-5.223-5.238-5.223-13.725 0-18.963M81.64 17.819c0 7.406-5.988 13.41-13.387 13.41-7.387 0-13.38-6.004-13.38-13.41M39.094 115.981c5.223-5.238 5.223-13.725 0-18.962-5.228-5.238-13.7-5.238-18.934 0M116.348 97.02c-5.222-5.238-13.7-5.238-18.928 0-5.223 5.237-5.223 13.725 0 18.962M81.64 118.956c0-7.406-5.988-13.411-13.387-13.411-7.387 0-13.38 6.005-13.38 13.41"/>
        <path fill="#16086D" d="M60.053 80v-4.545h4.275v-16.74h-4.276V55.43l7.965-4.725h3.78v24.75h4.096V80z"/>
    </g>
</svg>
