<svg xmlns="http://www.w3.org/2000/svg" width="83" height="50" viewBox="0 0 83 50">
    <g fill="none" fill-rule="evenodd">
        <g fill="#0B1560">
            <path d="M23.03 30.28c-2.2 0-3.5-.56-4.1-1l.46-2.38c1.24.54 1.86.82 2.9.82 1.28 0 1.9-.4 1.9-1.54v-.36c0-1.26-.36-1.82-1.26-1.82-.7 0-1 .22-1.3.8l-1.98-.28.32-7.54h7.1v2.68h-4.78L22.23 21l-.28 1.72c.54-.48 1.2-.78 2.28-.78 2.02 0 3.54 1.48 3.54 4.06 0 2.56-1.8 4.28-4.74 4.28zm11.5 0c-3.72 0-5.36-2.8-5.36-6.82 0-3.82 1.7-6.72 5.4-6.72 3.74 0 5.38 2.86 5.38 6.68 0 4-1.7 6.86-5.42 6.86zm.04-2.4c1.38 0 1.88-.68 1.88-3.94v-1.2c0-2.98-.46-3.48-1.9-3.48s-1.88.54-1.88 3.52v1.18c0 3.26.52 3.92 1.9 3.92zm20.1-7.08l1.16-1.34c.54-.2 1-.34 1.62-.34 1.96 0 2.88 1.32 2.88 3.52V30h-3.14v-7.6c0-.52-.32-.78-1.02-.78-.44 0-.78.12-1.34.3V30h-3.14v-7.6c0-.52-.38-.78-1.02-.78-.42 0-.8.1-1.34.28V30h-3.14V19.36h2.2l.9 1.4 1.14-1.3c.44-.2.98-.34 1.6-.34.84 0 1.4.16 1.78.34l.86 1.34zM61.986 25v-1.356l.06-.204c.324-1.116 1.068-1.752 1.788-2.364.72-.612 1.02-.888 1.02-1.5v-.18c0-.6-.324-.756-.864-.756-.576 0-1.008.156-1.728.42l-.264-1.416c.408-.252 1.152-.6 2.388-.6 1.776 0 2.616.9 2.616 2.328 0 1.452-.948 2.052-1.98 2.844-.468.36-.96.612-1.176 1.308l-.048.156 1.56-.228h1.512V25h-4.884z"/>
        </g>
        <path stroke="#0B1560" d="M68 1h14v48H68M15 1H1v48h14"/>
    </g>
</svg>
