<svg xmlns="http://www.w3.org/2000/svg" width="83" height="50" viewBox="0 0 83 50">
    <g fill="none" fill-rule="evenodd">
        <path stroke="#0B1560" d="M58.402 20H24.598c-.882 0-1.598.691-1.598 1.544v13.27c0 .266.071.528.207.76l5.641 9.642c.283.484.815.784 1.392.784h22.52c.577 0 1.109-.3 1.392-.784l5.641-9.643c.136-.231.207-.493.207-.76V21.544c0-.853-.716-1.544-1.598-1.544M68 1h14v48H68M15 1H1v48h14"/>
        <path fill="#0B1560" d="M53.6 5.062c-.15-.135-.395-.034-.395.162l.012 2.672a.227.227 0 0 1-.232.223H29.801c-.13 0-.234-.1-.233-.223l.012-2.672c.001-.196-.245-.298-.394-.162l-6.113 5.543a.215.215 0 0 0 0 .323l6.134 5.545c.15.134.395.034.394-.162l-.013-3.092c0-.123.104-.223.233-.223h23.143c.13 0 .234.1.234.223l-.013 3.092c0 .196.245.296.393.162l6.135-5.545a.216.216 0 0 0 0-.323L53.6 5.062z"/>
    </g>
</svg>
