<svg xmlns="http://www.w3.org/2000/svg" width="85" height="56" viewBox="0 0 85 56">
    <g fill="none" fill-rule="evenodd">
        <path stroke="#0B1560" d="M64 1H1v54h63"/>
        <g stroke="#0B1560">
            <path d="M17 5v11M17 13l-5-6M17 13l5-6M17 27V16M17 20l-5 6M17 20l5 6M6 16h11M14 16l-6 5M14 16l-6-5M28 16H17M21 16l6 5M22 16l4-5"/>
        </g>
        <path stroke="#0B1560" d="M48.598 21c-.882 0-1.598.691-1.598 1.544v13.27c0 .266.071.528.207.76l5.641 9.642c.283.484.815.784 1.392.784h22.52c.577 0 1.109-.3 1.392-.784l5.641-9.643c.136-.231.207-.493.207-.76V22.544c0-.853-.716-1.544-1.598-1.544H48.598z"/>
        <path fill="#0B1560" d="M47.2 31.12H30.8c-.128 0-.233-.1-.232-.224l.012-3.672c.001-.196-.245-.298-.394-.162l-6.113 6.543a.215.215 0 0 0 0 .323l6.134 6.545c.15.134.395.034.394-.162l-.013-4.092c0-.123.104-.223.233-.223H47.18l.02-4.877z"/>
    </g>
</svg>
