<svg xmlns="http://www.w3.org/2000/svg" xmlns:xlink="http://www.w3.org/1999/xlink" width="582" height="321" viewBox="0 0 582 321">
    <defs>
        <path id="a" d="M.861.257h56v57h-56z"/>
    </defs>
    <g fill="none" fill-rule="evenodd">
        <path fill="#EEF2F9" d="M0 0h582v163H0z"/>
        <path d="M486 0h78v250h-78z"/>
        <path fill="#EEF2F9" d="M361 114h111v41H361z"/>
        <g stroke="#0B1560">
            <path d="M155 86l7-7-7-7M161.23 79h-18.056"/>
        </g>
        <g stroke="#0B1560">
            <path d="M288 86l7-7-7-7M294 79h-18.056"/>
        </g>
        <g stroke="#0B1560">
            <path d="M427 86l7-7-7-7M433 79h-18.056"/>
        </g>
        <path stroke="#0B1560" d="M319.859 86.174c0 1.009.769 1.826 1.717 1.826.949 0 1.718-.817 1.718-1.826M325.87 86.174c0 1.009.77 1.826 1.718 1.826.949 0 1.718-.817 1.718-1.826M331.024 86.174c0 1.009.769 1.826 1.717 1.826.95 0 1.718-.817 1.718-1.826M337.035 86.174c0 1.009.769 1.826 1.718 1.826.948 0 1.718-.817 1.718-1.826"/>
        <path fill="#0B1560" d="M340.574 67h-19.96c-.417 0-.755.389-.755.868v7.455c0 .15.033.297.098.427l2.666 5.418c.134.272.386.44.658.44h14.626c.272 0 .524-.168.657-.44l2.668-5.418a.967.967 0 0 0 .097-.427v-7.455c0-.479-.338-.868-.755-.868z"/>
        <path stroke="#0B1560" d="M319 84.348h23.188"/>
        <g>
            <path stroke="#0B1560" d="M344.765 86.174c0 1.009.768 1.826 1.717 1.826.949 0 1.718-.817 1.718-1.826M350.776 86.174c0 1.009.77 1.826 1.718 1.826.949 0 1.718-.817 1.718-1.826M355.93 86.174c0 1.009.769 1.826 1.717 1.826.949 0 1.718-.817 1.718-1.826M361.941 86.174c0 1.009.769 1.826 1.718 1.826.948 0 1.717-.817 1.717-1.826"/>
            <path fill="#0B1560" d="M365.48 67h-19.96c-.417 0-.755.389-.755.868v7.455c0 .15.033.297.098.427l2.666 5.418c.134.272.386.44.658.44h14.626c.272 0 .523-.168.657-.44l2.667-5.418a.967.967 0 0 0 .098-.427v-7.455c0-.479-.338-.868-.756-.868z"/>
            <path stroke="#0B1560" d="M343.906 84.348h23.188"/>
        </g>
        <g>
            <path stroke="#0B1560" d="M369.67 86.174c0 1.009.77 1.826 1.718 1.826.949 0 1.718-.817 1.718-1.826M375.682 86.174c0 1.009.769 1.826 1.718 1.826.948 0 1.718-.817 1.718-1.826M380.835 86.174c0 1.009.77 1.826 1.718 1.826.949 0 1.718-.817 1.718-1.826M386.847 86.174c0 1.009.769 1.826 1.718 1.826.948 0 1.717-.817 1.717-1.826"/>
            <path fill="#0B1560" d="M390.385 67h-19.96c-.417 0-.754.389-.754.868v7.455c0 .15.033.297.097.427l2.667 5.418c.134.272.386.44.658.44h14.626c.272 0 .523-.168.657-.44l2.667-5.418a.967.967 0 0 0 .098-.427v-7.455c0-.479-.338-.868-.756-.868z"/>
            <path stroke="#0B1560" d="M368.812 84.348H392"/>
        </g>
        <g>
            <path stroke="#0B1560" d="M195.75 47H250v48h-54.25"/>
            <g stroke="#0B1560">
                <path d="M236.222 50.556v9.777M236.222 57.667l4.306-5.334M236.222 57.667l-4.305-5.334M236.222 70.111v-9.778M236.222 63.889l4.306 5.333M236.222 63.889l-4.305 5.333M245.694 60.333h-9.472M238.806 60.333l5.166 4.445M238.806 60.333l5.166-4.444M226.75 60.333h9.472M232.778 60.333l-5.167 4.445M231.917 60.333l-3.445-4.444"/>
            </g>
            <path fill="#0B1560" d="M218.485 64.778c.76 0 1.376.614 1.376 1.373v11.794c0 .237-.061.47-.178.676l-4.858 8.57c-.244.432-.702.698-1.198.698h-19.393c-.496 0-.954-.266-1.198-.697l-4.858-8.571a1.37 1.37 0 0 1-.178-.676V66.151c0-.759.616-1.373 1.376-1.373h29.109z"/>
        </g>
        <text fill="#1E1E1E" font-family="Amplitude-Book" font-size="14" font-weight="300">
            <tspan x="47" y="131">TRUCKS</tspan>
        </text>
        <g fill="#0B1560">
            <path d="M54.043 76.544h47.96V60.116h-47.96zM60.494 83.19H54c.81-1.827 1.53-3.538 2.34-5.199.127-.259.654-.405.996-.405 14.71-.016 29.418-.009 44.126 0 .136 0 .272.08.509.155v5.407H91.337v-4.552H79.323v4.531h-8.387c-1.368-3.626-2.944-5.066-5.435-4.952-2.448.112-4.064 1.714-5.007 5.014M114.097 75.673c0-3.316-1.341-5.837-1.899-6.889-.557-1.052-.835-1.447-2.319-1.447h-3.758v5.36h2.694c1.134 0 1.699.44 1.957 1.154.147.409.342 1.016.583 1.822h2.742zm-10.58-9.603c2.687 0 5.313-.039 7.936.04.422.013.992.45 1.222.868 2.735 4.966 3.525 9.439 2.836 15.73h-2.543c-.563-4.937-6.969-6.482-9.451-1.792V66.07z"/>
            <path d="M80.584 84.41h9.207v-4.764h-9.207zM108.123 85.634c.95-.152 1.64-.772 1.649-1.935.01-1.192-.707-1.883-1.764-1.886-1.071-.004-1.744.729-1.742 1.904.003 1.177.665 1.813 1.857 1.917m-.116-5.808c2.016-.015 3.57 1.69 3.567 3.916-.002 2.112-1.561 3.86-3.47 3.89-1.989.03-3.635-1.71-3.656-3.866-.022-2.2 1.536-3.924 3.56-3.94M65.762 85.632c1.038-.163 1.703-.774 1.658-1.98-.044-1.192-.74-1.883-1.8-1.848-1.064.036-1.74.814-1.701 1.969.038 1.146.723 1.798 1.843 1.86m-.014-5.803c1.985.023 3.581 1.832 3.52 3.992-.06 2.11-1.656 3.802-3.576 3.79-2.012-.014-3.61-1.765-3.583-3.929.026-2.204 1.605-3.876 3.64-3.853"/>
        </g>
        <text fill="#1E1E1E" font-family="Amplitude-Book" font-size="14" font-weight="300">
            <tspan x="312" y="131">CARGO TAXI</tspan>
        </text>
        <text fill="#1E1E1E" font-family="Amplitude-Book" font-size="14" font-weight="300">
            <tspan x="443" y="131">AIRCRAFT</tspan>
        </text>
        <text fill="#1E1E1E" font-family="Amplitude-Book" font-size="14" font-weight="300">
            <tspan x="181" y="130">STORAGE AREA</tspan>
        </text>
        <g transform="rotate(45 191.843 589.476)">
            <mask id="b" fill="#fff">
                <use xlink:href="#a"/>
            </mask>
            <path fill="#0B1560" d="M49.609 10.9L38.393 22.664l5.428 24.662-3.888 4.078-9.584-20.3-7.596 7.969.013 6.176-3.015 3.16-3.417-7.153-6.753-3.502 3.189-3.302 5.463.067 7.71-8.035-19.435-9.956 4.007-4.145 23.609 5.608L45.269 6.347a2.967 2.967 0 0 1 4.34 0c1.199 1.257 1.199 3.297 0 4.553" mask="url(#b)"/>
        </g>
        <path fill="#E2E2E2" d="M0 165h582v156H0z"/>
        <text fill="#1E1E1E" font-family="Amplitude-Regular, Amplitude" font-size="12" letter-spacing=".2">
            <tspan x="312" y="194">Tarmac time is </tspan> <tspan x="312" y="207">planned according </tspan> <tspan x="312" y="220">to the type of </tspan> <tspan x="312" y="233">goods and weather </tspan> <tspan x="312" y="246">conditions</tspan>
        </text>
        <text fill="#1E1E1E" font-family="Amplitude-Regular, Amplitude" font-size="12" letter-spacing=".2">
            <tspan x="443" y="194">We position </tspan> <tspan x="443" y="207">perishables cargo </tspan> <tspan x="443" y="220">in specific areas </tspan> <tspan x="443" y="233">of the cargo hold </tspan> <tspan x="443" y="246">and adjust the </tspan> <tspan x="443" y="259">temperature </tspan> <tspan x="443" y="272">accordingly</tspan>
        </text>
        <text fill="#1E1E1E" font-family="Amplitude-Regular, Amplitude" font-size="12" letter-spacing=".2">
            <tspan x="181" y="194">We use sensors </tspan> <tspan x="181" y="207">throughout the </tspan> <tspan x="181" y="220">terminal to </tspan> <tspan x="181" y="233">monitor and </tspan> <tspan x="181" y="246">maintain steady </tspan> <tspan x="181" y="259">temperatures</tspan>
        </text>
        <text fill="#1E1E1E" font-family="Amplitude-Regular, Amplitude" font-size="12" letter-spacing=".2">
            <tspan x="47" y="194">Perishables go </tspan> <tspan x="47" y="207">directly into a </tspan> <tspan x="47" y="220">temperature </tspan> <tspan x="47" y="233">controlled </tspan> <tspan x="47" y="246">environment </tspan> <tspan x="47" y="259">when they arrive </tspan> <tspan x="47" y="272">at the terminal</tspan>
        </text>
    </g>
</svg>
