<svg xmlns="http://www.w3.org/2000/svg" width="582" height="329" viewBox="0 0 582 329">
    <g fill="none" fill-rule="evenodd">
        <path fill="#EEF2F9" d="M-1 0h583v329H-1z"/>
        <text fill="#1E1E1E" font-family="Amplitude-Medium, Amplitude" font-size="10" font-weight="400" transform="translate(-1)">
            <tspan x="21.53" y="33">MILLIONS</tspan> <tspan x="43.82" y="43">(KG)</tspan>
        </text>
        <text fill="#1E1E1E" font-family="Amplitude-Bold" font-size="12" font-weight="bold" transform="translate(-1)">
            <tspan x="208.948" y="33">SALMON SHIPMENT GROWTH</tspan>
        </text>
        <path stroke="#C3C3C3" d="M67.911 60.324H539.47M67.911 115.394H539.47M67.911 225.535H539.47M67.911 170.465H539.47"/>
        <path stroke="#0B1560" d="M67.911 280.606H539.47"/>
        <text fill="#1E1E1E" font-family="Amplitude-Regular, Amplitude" font-size="14" transform="translate(34 46)">
            <tspan x="80.623" y="261">2015</tspan>
        </text>
        <text fill="#1E1E1E" font-family="Amplitude-Regular, Amplitude" font-size="14" transform="translate(34 46)">
            <tspan x="198.168" y="261">2016</tspan>
        </text>
        <text fill="#1E1E1E" font-family="Amplitude-Regular, Amplitude" font-size="14" transform="translate(34 46)">
            <tspan x="317.158" y="261">2017</tspan>
        </text>
        <text fill="#1E1E1E" font-family="Amplitude-Regular, Amplitude" font-size="14" transform="translate(34 46)">
            <tspan x="433.717" y="261">2018</tspan>
        </text>
        <text fill="#1E1E1E" font-family="Amplitude-Regular, Amplitude" font-size="14" transform="translate(34 46)">
            <tspan x="12.574" y="232">10</tspan>
        </text>
        <text fill="#1E1E1E" font-family="Amplitude-Regular, Amplitude" font-size="14" transform="translate(34 46)">
            <tspan x="13.89" y="121">15</tspan>
        </text>
        <text fill="#1E1E1E" font-family="Amplitude-Regular, Amplitude" font-size="14" transform="translate(34 46)">
            <tspan x="11.356" y="11">20</tspan>
        </text>
        <path fill="#0B1560" d="M88 281h76v-79H88zM207 281h76V88h-76zM322 281h76V82h-76zM438.944 281h75.842V82h-75.842z"/>
    </g>
</svg>
